<?xml version="1.0" encoding="iso-8859-1"?>
<!-- Uploaded to: SVG Repo, www.svgrepo.com, Generator: SVG Repo Mixer Tools -->
<svg height="800px" width="800px" version="1.1" id="Layer_1" xmlns="http://www.w3.org/2000/svg" xmlns:xlink="http://www.w3.org/1999/xlink" 
	 viewBox="0 0 503.467 503.467" xml:space="preserve">
<g transform="translate(1 1)">
	<path style="fill:#7EE1E6;" d="M472.6,191c14.507,0,25.6,11.093,25.6,25.6s-11.093,25.6-25.6,25.6c-6.827,0-13.653-2.56-17.92-7.68
		c-4.267-4.267-7.68-11.093-7.68-17.92C447,202.093,458.093,191,472.6,191z M353.987,335.213c4.267,4.267,7.68,11.093,7.68,17.92
		c0,14.507-11.093,25.6-25.6,25.6s-25.6-11.093-25.6-25.6c0-6.827,2.56-13.653,7.68-17.92c4.267-4.267,11.093-7.68,17.92-7.68
		S349.72,330.093,353.987,335.213z M250.733,242.2c14.507,0,25.6,11.093,25.6,25.6c0,6.827-2.56,13.653-7.68,17.92
		c-4.267,4.267-11.093,7.68-17.92,7.68c-9.387,0-17.067-5.12-22.187-11.947c-2.56-4.267-3.413-8.533-3.413-13.653
		C225.133,253.293,236.227,242.2,250.733,242.2z M28.867,447c14.507,0,25.6,11.093,25.6,25.6s-11.093,25.6-25.6,25.6
		s-25.6-11.093-25.6-25.6S14.36,447,28.867,447z"/>
	<path style="fill:#FFE079;" d="M114.2,3.267c61.44,0,110.933,49.493,110.933,110.933S175.64,225.133,114.2,225.133
		C52.76,225.133,3.267,175.64,3.267,114.2S52.76,3.267,114.2,3.267"/>
</g>
<path style="fill:#51565F;" d="M29.867,503.467C13.653,503.467,0,489.813,0,473.6s13.653-29.867,29.867-29.867
	c8.533,0,17.067,4.267,22.187,10.24L224.427,281.6c-1.707-3.413-2.56-7.68-2.56-12.8c0-16.213,13.653-29.867,29.867-29.867
	S281.6,252.587,281.6,268.8c0,6.827-2.56,12.8-5.973,17.92l43.52,43.52c5.12-3.413,11.093-5.973,17.92-5.973s12.8,2.56,17.92,5.973
	l94.72-94.72c-3.413-5.12-5.973-11.093-5.973-17.92c0-16.213,13.653-29.867,29.867-29.867s29.867,13.653,29.867,29.867
	s-13.653,29.867-29.867,29.867c-6.827,0-12.8-2.56-17.92-5.973l-94.72,94.72c3.413,5.12,5.973,11.093,5.973,17.92
	c0,16.213-13.653,29.867-29.867,29.867c-16.213,0-29.867-13.653-29.867-29.867c0-6.827,2.56-12.8,5.973-17.92l-43.52-43.52
	c-5.12,3.413-11.093,5.973-17.92,5.973c-8.533,0-17.067-4.267-22.187-10.24L57.173,460.8c1.707,3.413,2.56,7.68,2.56,12.8
	C59.733,489.813,46.08,503.467,29.867,503.467z M29.867,452.267c-11.947,0-21.333,9.387-21.333,21.333s9.387,21.333,21.333,21.333
	S51.2,485.547,51.2,473.6S41.813,452.267,29.867,452.267z M337.067,332.8c-11.947,0-21.333,9.387-21.333,21.333
	s9.387,21.333,21.333,21.333s21.333-9.387,21.333-21.333S349.013,332.8,337.067,332.8z M251.733,247.467
	c-11.947,0-21.333,9.387-21.333,21.333s9.387,21.333,21.333,21.333c11.947,0,21.333-9.387,21.333-21.333
	S263.68,247.467,251.733,247.467z M459.093,232.96c3.413,3.413,9.387,5.973,14.507,5.973c11.947,0,21.333-9.387,21.333-21.333
	s-9.387-21.333-21.333-21.333c-11.947,0-21.333,9.387-21.333,21.333C452.267,223.574,454.827,228.693,459.093,232.96
	C458.24,232.107,458.24,232.107,459.093,232.96L459.093,232.96z M115.2,230.4C52.053,230.4,0,178.347,0,115.2S52.053,0,115.2,0
	s115.2,52.053,115.2,115.2S178.347,230.4,115.2,230.4z M115.2,8.533C56.32,8.533,8.533,56.32,8.533,115.2
	S56.32,221.867,115.2,221.867S221.867,174.08,221.867,115.2S174.08,8.533,115.2,8.533z M115.2,179.2
	c-2.56,0-4.267-1.707-4.267-4.267v-4.267c-14.507-1.707-25.6-14.507-25.6-29.867c0-2.56,1.707-4.267,4.267-4.267
	c2.56,0,4.267,1.707,4.267,4.267c0,11.947,9.387,21.333,21.333,21.333s21.333-9.387,21.333-21.333
	c0-11.947-9.387-21.333-21.333-21.333c-16.213,0-29.867-13.653-29.867-29.867c0-15.36,11.093-27.307,25.6-29.867v-4.267
	c0-2.56,1.707-4.267,4.267-4.267c2.56,0,4.267,1.707,4.267,4.267v4.267c14.507,1.707,25.6,14.507,25.6,29.867
	c0,2.56-1.707,4.267-4.267,4.267c-2.56,0-4.267-1.707-4.267-4.267c0-11.947-9.387-21.333-21.333-21.333S93.867,77.654,93.867,89.6
	s9.387,21.333,21.333,21.333c16.213,0,29.867,13.653,29.867,29.867c0,15.36-11.093,27.307-25.6,29.867v4.267
	C119.467,177.493,117.76,179.2,115.2,179.2z"/>
</svg>